<svg xmlns="http://www.w3.org/2000/svg" width="24" height="24" viewBox="0 0 24 24"><g fill="none" stroke="currentColor" stroke-width="1.5"><path stroke-linecap="round" d="M7 18c-1.829.412-3 1.044-3 1.754C4 20.994 7.582 22 12 22s8-1.006 8-2.246c0-.71-1.171-1.342-3-1.754"/><path d="M14.5 9a2.5 2.5 0 1 1-5 0a2.5 2.5 0 0 1 5 0Z"/><path d="M13.257 17.494a1.813 1.813 0 0 1-2.514 0c-3.089-2.993-7.228-6.336-5.21-11.19C6.626 3.679 9.246 2 12 2s5.375 1.68 6.467 4.304c2.016 4.847-2.113 8.207-5.21 11.19Z"/></g></svg>